<svg width="24" height="25" viewBox="0 0 24 25" fill="none" xmlns="http://www.w3.org/2000/svg">
<path fill-rule="evenodd" clip-rule="evenodd" d="M12.221 2.53131C12.0948 2.41962 11.9052 2.41962 11.779 2.53131L2.44571 10.7952C2.37425 10.8585 2.33334 10.9493 2.33334 11.0448V22.3333C2.33334 22.5174 2.48258 22.6667 2.66668 22.6667H21.3333C21.5174 22.6667 21.6667 22.5174 21.6667 22.3333V11.0448C21.6667 10.9493 21.6258 10.8585 21.5543 10.7952L12.221 2.53131ZM10.4532 1.03391C11.3362 0.252084 12.6638 0.252084 13.5468 1.03391L22.8801 9.2978C23.3803 9.74067 23.6667 10.3767 23.6667 11.0448V22.3333C23.6667 23.622 22.622 24.6667 21.3333 24.6667H2.66668C1.37801 24.6667 0.333344 23.622 0.333344 22.3333V11.0448C0.333344 10.3767 0.619703 9.74067 1.11989 9.2978L10.4532 1.03391Z" fill="#8E95A3"/>
</svg>
