<svg width="26" height="24" viewBox="0 0 26 24" fill="none" xmlns="http://www.w3.org/2000/svg">
<path fill-rule="evenodd" clip-rule="evenodd" d="M5.8 2.33334C3.79782 2.33334 2 4.17173 2 6.66668V14.6667C2 16.9602 4.12934 18.7333 6.33333 18.7333C6.61508 18.7333 6.88375 18.8522 7.07327 19.0607L8.61351 20.7549C8.82357 20.3242 9.10585 19.8105 9.48534 19.2033C9.66807 18.911 9.98854 18.7333 10.3333 18.7333H20.2C22.2671 18.7333 24 17.092 24 14.6667V6.66668C24 4.17173 22.2022 2.33334 20.2 2.33334H5.8ZM10 22.6683C9.99997 22.6863 9.99946 22.7043 9.99847 22.7221C9.99776 22.7268 9.99749 22.7291 9.99749 22.7291C9.99749 22.7291 9.99754 22.7286 9.99764 22.7276C9.99792 22.7249 9.99851 22.7183 9.99903 22.7081L9.99971 22.6901L9.99992 22.679L9.99998 22.673L10 22.6699L10 22.6683ZM10.8965 20.7333H20.2C23.4348 20.7333 26 18.1324 26 14.6667V6.66668C26 3.27059 23.4998 0.333344 20.2 0.333344H5.8C2.50025 0.333344 0 3.27059 0 6.66668V14.6667C0 18.0869 2.92439 20.4873 5.87476 20.7155L8.26006 23.3394C8.53797 23.645 8.97525 23.7484 9.3606 23.5994C9.72861 23.4571 9.97689 23.1127 9.99847 22.7221C9.99928 22.7169 10.0006 22.7086 10.0028 22.6972C10.0129 22.6446 10.0402 22.5274 10.1084 22.3363C10.2232 22.015 10.4506 21.4941 10.8965 20.7333Z" fill="#8E95A3"/>
</svg>
