<?xml version="1.0" standalone="no"?>
<!DOCTYPE svg PUBLIC "-//W3C//DTD SVG 20010904//EN"
 "http://www.w3.org/TR/2001/REC-SVG-20010904/DTD/svg10.dtd">
<svg version="1.0" xmlns="http://www.w3.org/2000/svg"
 width="24.000000pt" height="24.000000pt" viewBox="0 0 24.000000 24.000000"
 preserveAspectRatio="xMidYMid meet">

<g transform="translate(0.000000,24.000000) scale(0.100000,-0.100000)"
fill="#000000" stroke="none">
<path d="M90 120 l0 -110 30 0 30 0 0 110 0 110 -30 0 -30 0 0 -110z"/>
<path d="M170 95 l0 -85 30 0 30 0 0 85 0 85 -30 0 -30 0 0 -85z"/>
<path d="M10 65 c0 -54 0 -55 30 -55 30 0 30 1 30 55 0 54 0 55 -30 55 -30 0
-30 -1 -30 -55z"/>
</g>
</svg>
