<?xml version="1.0" standalone="no"?>
<!DOCTYPE svg PUBLIC "-//W3C//DTD SVG 20010904//EN"
 "http://www.w3.org/TR/2001/REC-SVG-20010904/DTD/svg10.dtd">
<svg version="1.0" xmlns="http://www.w3.org/2000/svg"
 width="24.000000pt" height="24.000000pt" viewBox="0 0 24.000000 24.000000"
 preserveAspectRatio="xMidYMid meet">

<g transform="translate(0.000000,24.000000) scale(0.100000,-0.100000)"
fill="#000000" stroke="none">
<path d="M92 178 c-34 -34 6 -90 48 -68 35 19 20 80 -20 80 -9 0 -21 -5 -28
-12z m46 -7 c23 -14 10 -46 -18 -46 -16 0 -26 6 -28 19 -3 16 12 36 28 36 3 0
11 -4 18 -9z"/>
<path d="M78 74 c-16 -8 -28 -20 -28 -26 0 -6 9 -3 20 7 11 10 34 18 50 18 16
0 39 -8 50 -18 11 -10 20 -13 20 -7 0 13 -51 42 -72 42 -7 -1 -25 -8 -40 -16z"/>
</g>
</svg>
